<svg xmlns="http://www.w3.org/2000/svg" width="24" height="24"><g fill="none" fill-rule="evenodd"><path d="M0 0h24v24H0z"/><path d="M13.3 3.7c0-.7-.6-1.3-1.3-1.3-.7 0-1.3.6-1.3 1.3v4.7c0 .7.6 1.3 1.3 1.3.7 0 1.3-.6 1.3-1.3V3.7zm8.6 5.9c-.2-.7-1-1.1-1.6-.8l-4.5 1.5c-.7.2-1.1 1-.8 1.6.2.6.7.9 1.2.9.1 0 .3 0 .4-.1l4.5-1.5c.7-.1 1.1-.9.8-1.6zm-6.3 6.1c-.4-.6-1.2-.7-1.8-.3-.6.4-.7 1.2-.3 1.8l2.8 3.8c.3.4.7.5 1.1.5.3 0 .5-.1.8-.2.6-.4.7-1.2.3-1.8l-2.9-3.8zm-7.2 0-2.8 3.8c-.4.6-.3 1.4.3 1.8.2.2.5.2.8.2.4 0 .8-.2 1.1-.5l2.8-3.8c.4-.6.3-1.4-.3-1.8-.7-.4-1.5-.3-1.9.3zm-.6-2.9c.6 0 1.1-.4 1.2-.9.2-.7-.2-1.4-.8-1.6L3.7 8.8c-.7-.2-1.4.2-1.6.8-.2.7.2 1.4.8 1.6l4.5 1.5c.1.1.3.1.4.1z" fill="#00A0FF"/></g></svg>