<svg width="24" height="24" fill="none" xmlns="http://www.w3.org/2000/svg"><g clip-path="url(#a)"><path d="M9.35294 8.62367 6.47269 15.3942H4.59356L3.17619 9.99099c-.08609-.33284-.16084-.45469-.42254-.59487C2.32641 9.16769 1.62076 8.95348 1 8.82045l.04217-.19678h3.02492c.38557 0 .73215.25288.81969.69037l.74857 3.91776 1.85009-4.60813h1.8675Zm7.36296 4.55993c.0076-1.7869-2.508-1.8854-2.4907-2.6836.0054-.2429.2402-.50116.7541-.56717.2547-.03287.9565-.05796 1.7525.30297l.3122-1.43564C16.6163 8.64724 16.066 8.5 15.3812 8.5c-1.7571 0-2.9937.92032-3.0041 2.238-.0114.9748.8826 1.5186 1.5561 1.8425.6929.3317.9253.5448.9227.8415-.005.4542-.5526.6547-1.0645.6626-.8934.0135-1.4119-.2383-1.8253-.4276l-.3222 1.4833c.4154.1877 1.182.3515 1.977.3597 1.8676 0 3.0892-.9088 3.095-2.3164Zm4.6399 2.2106H23l-1.4352-6.77053h-1.5175c-.1621-.00142-.3209.04517-.4558.13375-.1349.08857-.2397.21503-.3007.36298l-2.6677 6.2738h1.8667l.3707-1.0114h2.2807l.2146 1.0114Zm-1.9835-2.399.9357-2.5421.5385 2.5421h-1.4742ZM11.893 8.62367l-1.47 6.77053H8.64534l1.47056-6.77053h1.7771Z" fill="#1434CB"/></g><defs><clipPath id="a"><path fill="#fff" transform="translate(1 8.5)" d="M0 0h22v7H0z"/></clipPath></defs></svg>