<svg xmlns="http://www.w3.org/2000/svg" width="24" height="24"><g fill="none" fill-rule="evenodd"><path d="M0 0h24v24H0z"/><path fill="#FF5F00" d="M9.428 7.61h6.039v9.76H9.428z"/><path fill="#EB001B" d="M10.05 12.491a6.173 6.173 0 0 1 2.396-4.879c-2.572-2-6.265-1.709-8.484.67a6.16 6.16 0 0 0 0 8.421c2.219 2.378 5.912 2.67 8.484.67a6.173 6.173 0 0 1-2.396-4.882z"/><path fill="#F79E1B" fill-rule="nonzero" d="M22.106 16.657v-.464h.167v-.096h-.397v.096h.157v.464h.073zm.77 0v-.56h-.12l-.14.4-.14-.4h-.12v.56h.087v-.424l.13.364h.09l.13-.364v.424h.083z"/><path fill="#F79E1B" d="M22.596 12.491a6.201 6.201 0 0 1-3.532 5.583 6.327 6.327 0 0 1-6.618-.703 6.183 6.183 0 0 0 2.397-4.88 6.183 6.183 0 0 0-2.397-4.88 6.327 6.327 0 0 1 6.618-.704 6.201 6.201 0 0 1 3.532 5.583v.001z"/></g></svg>