<svg width="24" height="24" fill="none" xmlns="http://www.w3.org/2000/svg"><path fill-rule="evenodd" clip-rule="evenodd" d="M13.3554 2.09107C12.9121 2.03102 12.4597 2 12 2 6.47716 2 2 6.47716 2 12c0 5.5229 4.47716 10 10 10 5.5229 0 10-4.4771 10-10 0-2.10087-.6478-4.05045-1.7547-5.65983L18.4316 9.2322C18.7974 10.0811 19 11.0169 19 12c0 3.866-3.134 7-7 7-3.86598 0-7-3.134-7-7 0-3.73885 2.93128-6.79308 6.6211-6.98992l1.7343-2.91901Z" fill="#004388"/><path fill-rule="evenodd" clip-rule="evenodd" d="M10.2656 11.9057c.049-.9169.808-1.6453 1.7371-1.6453.9607 0 1.7396.7789 1.7396 1.7396s-.7788 1.7396-1.7395 1.7396v2.6c2.3967 0 4.3395-1.9429 4.3395-4.3396 0-2.39668-1.9429-4.3396-4.3396-4.3396-2.36521 0-4.28847 1.89215-4.33864 4.2453h2.60154Z" fill="#FDCA00"/></svg>